<?xml version="1.0" encoding="utf-8"?>
<!-- Generator: Adobe Illustrator 24.0.0, SVG Export Plug-In . SVG Version: 6.00 Build 0)  -->
<svg version="1.1" id="Layer_1" xmlns="http://www.w3.org/2000/svg" xmlns:xlink="http://www.w3.org/1999/xlink" x="0px" y="0px"
	 viewBox="0 0 256 256" enable-background="new 0 0 256 256" xml:space="preserve">
<g>
</g>
<g>
	<path fill="#EDC21D" d="M251,74.871v142.19c0,5.52-4.48,10-10,10c-0.001,0-225.999,0-226,0c-5.52,0-10-4.48-10-10V74.871
		c0-5.53,4.48-10.002,10-10.002h226C246.52,64.869,251,69.341,251,74.871z"/>
	<path fill="#F8E5B0" d="M236.22,219.518H33.586c-1.381,0-2.5-1.119-2.5-2.5s1.119-2.5,2.5-2.5H233.72V79.651
		c0-1.381,1.119-2.5,2.5-2.5s2.5,1.119,2.5,2.5v137.366C238.72,218.398,237.601,219.518,236.22,219.518z M23.586,219.518H19.5
		c-1.381,0-2.5-1.119-2.5-2.5s1.119-2.5,2.5-2.5h4.086c1.381,0,2.5,1.119,2.5,2.5S24.967,219.518,23.586,219.518z"/>
	<path fill="#878787" d="M55.948,51.757H31.045c-2.761,0-5,2.239-5,5v8.112h34.903v-8.112
		C60.948,53.995,58.709,51.757,55.948,51.757z"/>
	<path fill="#878787" d="M224.955,51.757h-24.903c-2.761,0-5,2.239-5,5v8.112h34.903v-8.112
		C229.955,53.995,227.717,51.757,224.955,51.757z"/>
	<path fill="#FB5E3D" d="M82.831,41.257v23.612h18.061V44.953h54.215v19.916h18.061V41.257c0-6.803-5.515-12.319-12.319-12.319
		h-65.7C88.346,28.939,82.831,34.454,82.831,41.257z"/>
	<circle fill="#FEB69F" cx="72.566" cy="117.03" r="21.155"/>
	<path fill="#72C2E9" d="M103.978,197.058H41.153v-27.46c0-17.349,14.064-31.413,31.413-31.413h0
		c17.349,0,31.413,14.064,31.413,31.413V197.058z"/>
	<path fill="#C5E5FE" d="M94.978,190.558c-1.381,0-2.5-1.119-2.5-2.5v-2.671c0-1.381,1.119-2.5,2.5-2.5s2.5,1.119,2.5,2.5v2.671
		C97.478,189.439,96.359,190.558,94.978,190.558z M94.978,177.887c-1.381,0-2.5-1.119-2.5-2.5v-5.789
		c0-10.98-8.933-19.913-19.913-19.913c-1.381,0-2.5-1.119-2.5-2.5s1.119-2.5,2.5-2.5c13.737,0,24.913,11.176,24.913,24.913v5.789
		C97.478,176.768,96.359,177.887,94.978,177.887z"/>
	<circle fill="#FEB69F" cx="128" cy="135.859" r="16.178"/>
	<path fill="#8B72E9" d="M152.022,197.058h-48.044v-20.999c0-13.267,10.755-24.022,24.022-24.022h0
		c13.267,0,24.022,10.755,24.022,24.022V197.058z"/>
	<path fill="#B8A4FF" d="M143.021,190.558c-1.381,0-2.5-1.119-2.5-2.5v-2.599c0-1.381,1.119-2.5,2.5-2.5s2.5,1.119,2.5,2.5v2.599
		C145.521,189.439,144.402,190.558,143.021,190.558z M143.007,177.959c-1.335,0-2.443-1.055-2.496-2.401
		c-0.266-6.741-5.761-12.021-12.511-12.021c-1.381,0-2.5-1.119-2.5-2.5s1.119-2.5,2.5-2.5c9.445,0,17.135,7.39,17.507,16.824
		c0.055,1.38-1.02,2.542-2.399,2.597C143.074,177.959,143.04,177.959,143.007,177.959z"/>
	<circle fill="#FEB69F" cx="183.434" cy="117.03" r="21.155"/>
	<path fill="#FB5E3D" d="M214.847,197.058h-62.825v-27.46c0-17.349,14.064-31.413,31.413-31.413h0
		c17.349,0,31.413,14.064,31.413,31.413V197.058z"/>
	<path fill="#FFCBC3" d="M205.847,190.558c-1.381,0-2.5-1.119-2.5-2.5v-2.672c0-1.381,1.119-2.5,2.5-2.5s2.5,1.119,2.5,2.5v2.672
		C208.347,189.439,207.228,190.558,205.847,190.558z M205.847,177.886c-1.381,0-2.5-1.119-2.5-2.5v-5.789
		c0-10.98-8.933-19.913-19.913-19.913c-1.381,0-2.5-1.119-2.5-2.5s1.119-2.5,2.5-2.5c13.737,0,24.913,11.176,24.913,24.913v5.789
		C208.347,176.767,207.228,177.886,205.847,177.886z"/>
	<circle cx="5" cy="123.15" r="2.5"/>
	<path d="M253.5,74.87c0-6.89-5.61-12.5-12.5-12.5h-8.55v-5.61c0-4.14-3.36-7.5-7.49-7.5h-24.91c-4.13,0-7.5,3.36-7.5,7.5v5.61
		h-16.88V41.26c0-8.17-6.65-14.82-14.82-14.82h-6.25c-1.38,0-2.5,1.12-2.5,2.5s1.12,2.5,2.5,2.5h6.25c5.4,0.01,9.811,4.41,9.82,9.82
		v21.11h-13.061V44.95c0-0.67-0.26-1.29-0.729-1.76c-0.48-0.48-1.1-0.74-1.771-0.74h-54.22c-0.66,0-1.3,0.27-1.76,0.74
		c-0.47,0.46-0.74,1.11-0.74,1.76v17.42H85.33V41.26c0.01-5.41,4.42-9.81,9.82-9.82h39.45c1.38,0,2.5-1.12,2.5-2.5
		s-1.12-2.5-2.5-2.5H95.15c-8.17,0-14.82,6.65-14.82,14.82v21.11H63.45v-5.61c0-4.14-3.37-7.5-7.5-7.5H31.04
		c-4.13,0-7.49,3.36-7.5,7.5v5.61H15c-6.89,0-12.5,5.61-12.5,12.5v38.29c0,1.37,1.12,2.5,2.5,2.5c1.38,0,2.5-1.13,2.5-2.5V74.87
		c0.01-4.13,3.37-7.49,7.5-7.5c9.54,0,216.385,0,226,0c4.13,0.01,7.49,3.37,7.5,7.5v142.19c-0.01,4.13-3.37,7.49-7.5,7.5H15
		c-4.13-0.01-7.49-3.37-7.5-7.5v-83.91c0-1.37-1.12-2.5-2.5-2.5c-1.38,0-2.5,1.13-2.5,2.5v83.91c0,6.89,5.61,12.5,12.5,12.5h226
		c6.89,0,12.5-5.61,12.5-12.5V74.87z M28.54,62.37v-5.61c0.01-1.38,1.13-2.5,2.5-2.5h24.91c1.37,0,2.5,1.12,2.5,2.5v5.61H28.54z
		 M103.39,47.45h49.22v14.92h-49.22V47.45z M197.55,62.37v-5.61c0-1.38,1.13-2.5,2.5-2.5h24.91c1.37,0,2.49,1.12,2.49,2.5v5.61
		H197.55z"/>
	<circle cx="144.6" cy="28.94" r="2.5"/>
	<path d="M83.72,114.53c-1.38,0-2.5,1.12-2.5,2.5c-0.01,4.76-3.89,8.65-8.65,8.65c-4.77,0-8.65-3.89-8.66-8.65
		c0-1.38-1.12-2.5-2.5-2.5c-1.38,0-2.5,1.12-2.5,2.5c0.01,7.53,6.13,13.65,13.66,13.65c7.52,0,13.65-6.12,13.65-13.65
		C86.22,115.65,85.1,114.53,83.72,114.53z"/>
	<path d="M38.65,169.6v27.46c0,1.38,1.12,2.5,2.5,2.5s2.5-1.12,2.5-2.5V169.6c0.03-15.92,13-28.89,28.92-28.91
		c15.91,0.02,28.88,12.99,28.91,28.91c0,10.671,0,16.97,0,27.46c0,1.38,1.12,2.5,2.5,2.5c1.38,0,2.5-1.12,2.5-2.5v-0.01v-20.99
		c0.02-11.85,9.68-21.5,21.52-21.52c11.85,0.02,21.5,9.67,21.52,21.52v21c0,1.38,1.12,2.5,2.5,2.5s2.5-1.12,2.5-2.5
		c0-10.418,0-16.854,0-27.46c0.03-15.92,13-28.89,28.92-28.91c7.2,0,14.101,2.66,19.44,7.51c0.979,0.89,2.64,0.81,3.53-0.17
		c0.92-1.02,0.85-2.61-0.17-3.53c-3.324-3.026-7.172-5.317-11.316-6.807c7.249-4.045,12.165-11.79,12.165-20.664
		c0-13.04-10.61-23.65-23.65-23.65c-13.05,0-23.659,10.61-23.659,23.65c0,8.866,4.907,16.604,12.148,20.652
		c-10.334,3.713-18.831,12.597-21.52,24.191c-2.865-4.503-7.114-8.203-12.283-10.338c5.139-3.332,8.555-9.107,8.555-15.675
		c0-10.3-8.38-18.68-18.68-18.68c-10.3,0-18.68,8.38-18.68,18.68c0,6.568,3.416,12.344,8.556,15.676
		c-5.006,2.068-9.32,5.679-12.284,10.338c-2.661-11.472-11.058-20.423-21.499-24.183c7.264-4.063,12.127-11.775,12.127-20.66
		c0-13.04-10.61-23.65-23.65-23.65c-13.05,0-23.66,10.61-23.66,23.65c0,8.88,4.855,16.591,12.132,20.659
		C48.25,142.294,38.65,154.642,38.65,169.6z M164.78,117.03c0.02-10.27,8.39-18.64,18.659-18.66c10.261,0.02,18.63,8.39,18.65,18.66
		c-0.021,10.27-8.39,18.64-18.65,18.65C173.17,135.67,164.8,127.3,164.78,117.03z M114.32,135.86c0.02-7.53,6.15-13.67,13.68-13.68
		c7.53,0.01,13.66,6.15,13.68,13.68c-0.02,7.53-6.149,13.66-13.68,13.68C120.47,149.52,114.34,143.39,114.32,135.86z M53.91,117.03
		c0.02-10.27,8.39-18.64,18.66-18.66c10.26,0.02,18.63,8.39,18.65,18.66c-0.02,10.27-8.39,18.64-18.65,18.66
		C62.3,135.67,53.93,127.3,53.91,117.03z"/>
	<path d="M134.58,133.36c-1.38,0-2.5,1.12-2.5,2.5c-0.011,2.24-1.84,4.07-4.08,4.08c-2.24-0.01-4.07-1.84-4.08-4.08
		c0-1.38-1.12-2.5-2.5-2.5c-1.37,0-2.5,1.12-2.5,2.5c0.01,5,4.08,9.07,9.08,9.08c5-0.01,9.069-4.08,9.08-9.08
		C137.08,134.48,135.95,133.36,134.58,133.36z"/>
	<path d="M195.84,117.03c0-1.38-1.12-2.5-2.5-2.5s-2.5,1.12-2.5,2.5c-0.01,4.08-3.33,7.4-7.41,7.41c-4.07-0.01-7.39-3.33-7.399-7.41
		c0-1.38-1.12-2.5-2.5-2.5c-1.381,0-2.5,1.12-2.5,2.5c0,6.84,5.569,12.4,12.399,12.4C190.27,129.43,195.84,123.87,195.84,117.03z"/>
	<path d="M209.54,151.95c-1.218,0.693-1.616,2.203-0.94,3.41c0,0,0,0,0.01,0c0.664,1.176,2.172,1.619,3.4,0.94
		c1.2-0.68,1.62-2.21,0.94-3.41C212.3,151.73,210.71,151.29,209.54,151.95z"/>
	<path d="M214.85,199.56c1.38,0,2.5-1.12,2.5-2.5V169.6c0-2.23-0.22-4.46-0.649-6.63c-0.271-1.33-1.61-2.24-2.94-1.97
		c-1.35,0.27-2.24,1.59-1.97,2.94c0.37,1.85,0.56,3.75,0.56,5.66v27.46C212.35,198.44,213.47,199.56,214.85,199.56z"/>
</g>
</svg>
